<?xml version="1.0" encoding="UTF-8" standalone="no"?>
<!-- Created with Inkscape (http://www.inkscape.org/) -->

<svg
   xmlns:dc="http://purl.org/dc/elements/1.1/"
   xmlns:cc="http://creativecommons.org/ns#"
   xmlns:rdf="http://www.w3.org/1999/02/22-rdf-syntax-ns#"
   xmlns:svg="http://www.w3.org/2000/svg"
   xmlns="http://www.w3.org/2000/svg"
   xmlns:sodipodi="http://sodipodi.sourceforge.net/DTD/sodipodi-0.dtd"
   xmlns:inkscape="http://www.inkscape.org/namespaces/inkscape"
   width="221.44032mm"
   height="76.983345mm"
   viewBox="0 0 221.44032 76.983345"
   version="1.1"
   id="svg8"
   inkscape:version="0.92.2 (5c3e80d, 2017-08-06)"
   sodipodi:docname="logo_digiwall.svg">
  <defs
     id="defs2" />
  <sodipodi:namedview
     id="base"
     pagecolor="#515151"
     bordercolor="#666666"
     borderopacity="1.0"
     inkscape:pageopacity="0"
     inkscape:pageshadow="2"
     inkscape:zoom="0.49497475"
     inkscape:cx="145.67545"
     inkscape:cy="250.50902"
     inkscape:document-units="mm"
     inkscape:current-layer="layer1"
     showgrid="false"
     inkscape:pagecheckerboard="false"
     inkscape:window-width="2560"
     inkscape:window-height="1361"
     inkscape:window-x="-9"
     inkscape:window-y="-9"
     inkscape:window-maximized="1"
     fit-margin-left="10"
     fit-margin-top="10"
     fit-margin-bottom="10"
     fit-margin-right="10" />
  <metadata
     id="metadata5">
    <rdf:RDF>
      <cc:Work
         rdf:about="">
        <dc:format>image/svg+xml</dc:format>
        <dc:type
           rdf:resource="http://purl.org/dc/dcmitype/StillImage" />
        <dc:title></dc:title>
      </cc:Work>
    </rdf:RDF>
  </metadata>
  <g
     inkscape:label="Calque 1"
     inkscape:groupmode="layer"
     id="layer1"
     transform="translate(2.6183394,-221.47951)">
    <g
       id="g832">
      <path
         sodipodi:nodetypes="cccc"
         inkscape:connector-curvature="0"
         id="path3482-5-3-1-1"
         d="m 8.4808724,252.46323 c -1.068173,-4.54185 15.1068236,-26.22718 25.5069326,-6.23701 0,0 -7.987838,0.85241 -11.133988,6.29645 z"
         style="fill:#ffe141;fill-opacity:1;stroke:none;stroke-width:0.26458332px;stroke-linecap:butt;stroke-linejoin:miter;stroke-opacity:1" />
      <path
         sodipodi:nodetypes="cccccc"
         inkscape:connector-curvature="0"
         id="path3544"
         d="m 48.447033,267.15663 c 0,0 3.0736,-6.21401 0.26727,-12.36121 l 14.197712,-23.31591 0.0196,27.93777 c 0,0 -0.43398,6.23322 -7.75082,7.87299 z"
         style="fill:#2eaadc;fill-opacity:1;stroke:none;stroke-width:0.26458332px;stroke-linecap:butt;stroke-linejoin:miter;stroke-opacity:1" />
      <path
         sodipodi:nodetypes="cccc"
         inkscape:connector-curvature="0"
         id="path3482-5-3-1-1-8"
         d="m 29.549308,234.11463 c 3.383661,-3.21252 30.266317,-0.17818 18.247108,18.88245 0,0 -4.763706,-6.46833 -11.051395,-6.44032 z"
         style="fill:#96bf0d;fill-opacity:1;stroke:none;stroke-width:0.26458332px;stroke-linecap:butt;stroke-linejoin:miter;stroke-opacity:1" />
      <path
         sodipodi:nodetypes="cccc"
         inkscape:connector-curvature="0"
         id="path3482-5-3-1-1-8-5"
         d="m 13.226386,278.95844 c -4.4037186,-1.54165 -13.98948102,-26.83983 8.457044,-24.85926 0,0 -3.57654,7.19309 -0.678299,12.77306 z"
         style="fill:#f7a800;fill-opacity:1;stroke:none;stroke-width:0.26458332px;stroke-linecap:butt;stroke-linejoin:miter;stroke-opacity:1" />
      <path
         sodipodi:nodetypes="cccc"
         inkscape:connector-curvature="0"
         id="path3482-5-3-1-1-8-5-1"
         d="m 41.081412,287.13237 c -3.2485,3.34913 -30.233315,1.42438 -19.009206,-18.11503 0,0 5.026029,6.26668 11.307229,5.97976 z"
         style="fill:#e7501e;fill-opacity:1;stroke:none;stroke-width:0.26458332px;stroke-linecap:butt;stroke-linejoin:miter;stroke-opacity:1" />
      <path
         sodipodi:nodetypes="cccc"
         inkscape:connector-curvature="0"
         id="path3482-5-3-1-1-8-5-1-3"
         d="m 61.211365,269.16068 c 1.07926,4.53924 -15.042748,26.26401 -25.491624,6.29929 0,0 7.985733,-0.87191 11.118573,-6.32362 z"
         style="fill:#b04a89;fill-opacity:1;stroke:none;stroke-width:0.26458332px;stroke-linecap:butt;stroke-linejoin:miter;stroke-opacity:1" />
    </g>
    <g
       aria-label="digiwall"
       transform="matrix(1.0108398,0,0,1.2334048,-168.14718,184.84081)"
       style="font-style:normal;font-weight:normal;font-size:40px;line-height:1.25;font-family:sans-serif;letter-spacing:0px;word-spacing:0px;fill:#fff4f4;fill-opacity:1;stroke:none;stroke-opacity:1"
       id="flowRoot7317">
      <path
         d="m 261.65734,60.668722 q 0.12,4.92 -3.52,8.52 -3.64,3.56 -8.56,3.4 -4.76,-0.12 -8.08,-3.6 -3.28,-3.48 -3.28,-8.28 0,-5 3.56,-8.56 3.56,-3.6 8.48,-3.44 5.04,0.2 8.4,4.04 v -11.48 h 3 z m -3.08,-0.24 q -0.08,-3.6 -2.56,-6.16 -2.44,-2.56 -5.96,-2.56 -3.6,-0.04 -6.2,2.56 -2.56,2.56 -2.6,6.2 -0.04,3.6 2.4,6.32 2.44,2.68 5.96,2.8 3.76,0.2 6.4,-2.6 2.68,-2.8 2.56,-6.56 z"
         style="font-style:normal;font-variant:normal;font-weight:normal;font-stretch:normal;font-family:abeatbyKai;-inkscape-font-specification:abeatbyKai;fill:#fff4f4;fill-opacity:1;stroke:none"
         id="path834" />
      <path
         d="m 267.88672,46.428722 h -3 v -5.32 h 3 z m 0,25.52 h -3 v -22.8 h 3 z"
         style="font-style:normal;font-variant:normal;font-weight:normal;font-stretch:normal;font-family:abeatbyKai;-inkscape-font-specification:abeatbyKai;fill:#fff4f4;fill-opacity:1;stroke:none"
         id="path836" />
      <path
         d="m 294.65484,60.348722 v 10.52 q 0,4.32 -3.56,7.16 -3.52,2.84 -8.08,2.68 -4.08,-0.16 -7.04,-2.48 -2.8,-2.24 -3.76,-5.72 h 2.96 q 0.68,2.36 3.04,4.04 2.36,1.72 5.16,1.72 3.36,-0.04 5.8,-2.36 2.48,-2.28 2.48,-5.48 v -2.16 q -3.36,3.84 -8.4,4.04 -4.92,0.16 -8.48,-3.4 -3.56,-3.6 -3.56,-8.6 0,-4.8 3.28,-8.28 3.32,-3.48 8.08,-3.64 4.92,-0.12 8.52,3.48 3.64,3.56 3.56,8.48 z m -3.08,0.24 q 0.12,-3.76 -2.56,-6.56 -2.64,-2.8 -6.4,-2.64 -3.52,0.16 -5.96,2.88 -2.44,2.68 -2.4,6.28 0.08,3.64 2.64,6.2 2.56,2.56 6.16,2.56 3.52,0 5.96,-2.56 2.48,-2.56 2.56,-6.16 z"
         style="font-style:normal;font-variant:normal;font-weight:normal;font-stretch:normal;font-family:abeatbyKai;-inkscape-font-specification:abeatbyKai;fill:#fff4f4;fill-opacity:1;stroke:none"
         id="path838" />
      <path
         d="m 300.85547,46.428722 h -3 v -5.32 h 3 z m 0,25.52 h -3 v -22.8 h 3 z"
         style="font-style:normal;font-variant:normal;font-weight:normal;font-stretch:normal;font-family:abeatbyKai;-inkscape-font-specification:abeatbyKai;fill:#fff4f4;fill-opacity:1;stroke:none"
         id="path840" />
      <path
         d="m 337.24328,49.148722 -8.56,22.8 h -3.56 l -4.96,-15.08 -4.68,15.08 h -3.48 l -8.64,-22.8 h 3.24 l 7.08,19 5.28,-16.24 h 2.6 l 5.2,16.12 7.2,-18.88 z"
         style="font-style:normal;font-variant:normal;font-weight:normal;font-stretch:normal;font-family:abeatbyKai;-inkscape-font-specification:abeatbyKai;fill:#fff4f4;fill-opacity:1;stroke:none"
         id="path842" />
      <path
         d="m 360.23984,60.508722 v 0.16 11.28 h -2.96 v -3.56 q -3.72,4.24 -9.12,4.08 -4.72,-0.16 -8.04,-3.64 -3.32,-3.48 -3.32,-8.28 0,-5 3.56,-8.56 3.56,-3.6 8.52,-3.4 4.8,0.16 8.16,3.68 3.36,3.48 3.2,8.24 z m -3.04,-0.24 q -0.08,-3.6 -2.56,-6.16 -2.48,-2.56 -5.96,-2.56 -3.64,0 -6.2,2.56 -2.56,2.56 -2.6,6.2 -0.08,3.6 2.36,6.32 2.48,2.68 5.96,2.84 3.76,0.16 6.4,-2.6 2.68,-2.8 2.6,-6.6 z"
         style="font-style:normal;font-variant:normal;font-weight:normal;font-stretch:normal;font-family:abeatbyKai;-inkscape-font-specification:abeatbyKai;fill:#fff4f4;fill-opacity:1;stroke:none"
         id="path844" />
      <path
         d="m 366.44234,71.948722 h -3.04 v -30.84 h 3.04 z"
         style="font-style:normal;font-variant:normal;font-weight:normal;font-stretch:normal;font-family:abeatbyKai;-inkscape-font-specification:abeatbyKai;fill:#fff4f4;fill-opacity:1;stroke:none"
         id="path846" />
      <path
         d="m 372.92672,71.948722 h -3.04 v -30.84 h 3.04 z"
         style="font-style:normal;font-variant:normal;font-weight:normal;font-stretch:normal;font-family:abeatbyKai;-inkscape-font-specification:abeatbyKai;fill:#fff4f4;fill-opacity:1;stroke:none"
         id="path848" />
    </g>
  </g>
</svg>
