<?xml version="1.0" encoding="UTF-8" standalone="no"?>
<!-- Creator: CorelDRAW X7 -->

<svg
   xmlns:dc="http://purl.org/dc/elements/1.1/"
   xmlns:cc="http://creativecommons.org/ns#"
   xmlns:rdf="http://www.w3.org/1999/02/22-rdf-syntax-ns#"
   xmlns:svg="http://www.w3.org/2000/svg"
   xmlns="http://www.w3.org/2000/svg"
   xmlns:sodipodi="http://sodipodi.sourceforge.net/DTD/sodipodi-0.dtd"
   xmlns:inkscape="http://www.inkscape.org/namespaces/inkscape"
   xml:space="preserve"
   width="84.5155mm"
   height="20.7269mm"
   version="1.1"
   style="shape-rendering:geometricPrecision; text-rendering:geometricPrecision; image-rendering:optimizeQuality; fill-rule:evenodd; clip-rule:evenodd"
   viewBox="0 0 8452 2073"
   id="svg38"
   sodipodi:docname="logo.svg"
   inkscape:export-filename="C:\WORK\DIGIWALL\WebSite\images\logo.png"
   inkscape:export-xdpi="110.29692"
   inkscape:export-ydpi="110.29692"
   inkscape:version="0.92.2 (5c3e80d, 2017-08-06)"><metadata
     id="metadata42"><rdf:RDF><cc:Work
         rdf:about=""><dc:format>image/svg+xml</dc:format><dc:type
           rdf:resource="http://purl.org/dc/dcmitype/StillImage" /><dc:title /></cc:Work></rdf:RDF></metadata><sodipodi:namedview
     pagecolor="#ffffff"
     bordercolor="#666666"
     borderopacity="1"
     objecttolerance="10"
     gridtolerance="10"
     guidetolerance="10"
     inkscape:pageopacity="0"
     inkscape:pageshadow="2"
     inkscape:window-width="2880"
     inkscape:window-height="1706"
     id="namedview40"
     showgrid="false"
     inkscape:zoom="4.8434902"
     inkscape:cx="82.766992"
     inkscape:cy="40.544684"
     inkscape:window-x="-11"
     inkscape:window-y="-11"
     inkscape:window-maximized="1"
     inkscape:current-layer="Layer_x0020_1" /><defs
     id="defs4"><style
       type="text/css"
       id="style2"><![CDATA[
    .fil0 {fill:#4D4D4D}
    .fil4 {fill:#65326D}
    .fil9 {fill:#7B316F}
    .fil7 {fill:#9E2A70}
    .fil10 {fill:#B61738}
    .fil8 {fill:#D62F7C}
    .fil11 {fill:#D81B63}
    .fil3 {fill:#F2511B}
    .fil1 {fill:#F3C017}
    .fil6 {fill:#F5751D}
    .fil2 {fill:#F68713}
    .fil5 {fill:#FAA11B}
   ]]></style></defs><g
     id="Layer_x0020_1"><metadata
       id="CorelCorpID_0Corel-Layer" /><g
       id="_772602352"
       style="stroke:none;stroke-opacity:1;fill:#f7f7f7;fill-opacity:1"><path
         class="fil0"
         d="M4380 1237l0 -348c0,-16 -2,-43 -17,-54 -27,-21 -61,-29 -95,-29l-209 0c-53,0 -105,13 -105,76l0 287c0,63 70,70 120,70l295 0c3,0 9,0 11,-2 0,0 0,0 0,0zm-1926 -648l0 621 380 0c70,0 129,-20 129,-99l0 -435c0,-74 -67,-87 -129,-87l-380 0zm1146 -195l0 172 -230 0 0 -172 230 0zm0 1014l-238 0 0 -782 238 0 0 782zm764 66c10,-15 13,-38 14,-57l-339 0c-74,0 -160,-10 -222,-54 -54,-38 -79,-91 -79,-157l0 -344c0,-66 16,-131 69,-175 56,-47 146,-57 217,-57l275 0c71,0 162,8 222,49 58,39 76,102 76,168l0 606c0,181 -154,225 -309,225l-554 0 0 -178 534 0c27,0 77,-3 96,-26zm632 -1080l0 172 -229 0 0 -172 229 0zm0 1014l-237 0 0 -782 237 0 0 782zm-1796 -252c0,72 -25,133 -81,178 -62,51 -145,65 -223,65l-683 0 0 -998 679 0c163,0 308,52 308,238l0 517z"
         id="path7"
         style="stroke:none;stroke-opacity:1;fill:#f7f7f7;fill-opacity:1" /><path
         class="fil0"
         d="M6679 405l-164 0 -260 853 -209 -762c-20,-73 -68,-102 -141,-102 -72,0 -118,31 -137,102l-210 762 -259 -853 -164 0 273 907c21,71 72,96 142,96 70,0 124,-22 144,-94l210 -780 217 780c19,72 71,94 141,94 70,0 122,-25 143,-96l274 -907zm1767 985l0 -986 -145 0 0 986 145 0zm-400 0l0 -986 -146 0 0 986 146 0zm-1233 -735l0 98 534 0c41,0 96,5 124,38 22,25 29,59 30,91l2 28 -446 0c-64,0 -133,10 -186,47 -44,32 -63,75 -63,129l0 135c0,56 25,96 72,125 55,34 123,44 187,44l342 0c62,0 126,-11 176,-50 41,-32 61,-73 61,-125l0 -382c0,-155 -151,-178 -274,-178l-559 0zm686 535c0,81 -75,100 -142,100l-257 0c-34,0 -68,-6 -98,-23 -30,-18 -48,-45 -48,-79l0 -76c0,-86 70,-112 144,-112l343 0c27,0 58,9 58,42l0 148z"
         id="path9"
         style="stroke:none;stroke-opacity:1;fill:#f7f7f7;fill-opacity:1" /><path
         class="fil0"
         d="M4955 1642c0,10 -3,18 -11,24 -7,6 -18,9 -31,9l-99 0 0 -143 98 0c29,0 43,11 43,33l0 77zm-30 -7l0 -65c0,-10 -7,-15 -21,-15l-59 0 0 97 59 0c14,0 21,-6 21,-17zm137 40l-31 0 0 -143 31 0 0 143zm215 -35c0,11 -4,20 -11,26 -8,6 -19,9 -32,9l-48 0c-16,0 -28,-2 -36,-8 -5,-4 -9,-8 -11,-14 -1,-3 -1,-8 -1,-15l0 -71c0,-7 0,-12 2,-16 2,-5 6,-9 13,-12 7,-5 18,-7 33,-7l81 0 0 23 -76 0c-8,0 -14,1 -17,3 -4,2 -6,6 -6,12l0 67c0,6 2,10 6,12 3,2 9,3 17,3l36 0c13,0 20,-5 20,-14l0 -43 30 0 0 45zm107 35l-31 0 0 -143 31 0 0 143zm188 -120l-48 0 0 120 -31 0 0 -120 -47 0 0 -23 126 0 0 23zm204 120l-33 0 -16 -34 -74 0 -17 34 -33 0 63 -129c5,-9 13,-14 24,-14 11,0 19,5 23,14l63 129zm-59 -56l-29 -58 -25 58 54 0zm246 56l-76 0c-16,0 -29,-2 -38,-7 -9,-6 -14,-15 -14,-28l0 -108 31 0 0 103c0,7 2,12 6,14 4,2 11,3 22,3l69 0 0 23zm93 0l-31 0 0 -143 31 0 0 143zm79 -24l71 0c11,0 18,-2 20,-6 1,-2 2,-8 2,-18 0,-7 -7,-11 -21,-11l-29 0c-13,0 -24,-3 -32,-7 -9,-6 -14,-14 -14,-24l0 -22c0,-11 5,-19 15,-26 7,-4 17,-6 30,-6l80 0 0 26 -70 0c-11,0 -17,2 -20,5 -1,2 -2,8 -2,16 0,4 2,7 5,9 4,2 9,3 17,3l30 0c13,0 23,3 32,8 8,6 12,14 12,24l0 22c0,11 -4,19 -13,24 -8,6 -19,9 -33,9l-80 0 0 -26zm327 -34l-91 0 0 21c0,8 8,13 22,13l75 0 0 26 -83 0c-14,0 -25,-3 -33,-8 -10,-6 -14,-14 -14,-25l0 -79c0,-10 4,-19 12,-25 8,-6 19,-9 33,-9l85 0 0 26 -75 0c-15,0 -22,4 -22,13l0 21 91 0 0 26zm202 -70c0,4 -1,7 -3,9l-90 96 90 0 0 23 -101 0c-6,0 -10,0 -14,-1 -4,-1 -8,-2 -10,-5 -3,-3 -5,-6 -5,-9 0,-3 2,-7 6,-11l87 -94 -89 0 0 -23 108 0c14,0 21,5 21,15zm263 -15l-64 132c-5,9 -12,13 -22,13 -9,0 -16,-4 -21,-13l-64 -132 32 0 53 112 54 -112 32 0zm195 110c0,22 -16,33 -48,33l-42 0c-15,0 -26,-2 -34,-7 -9,-6 -14,-14 -14,-26l0 -76c0,-11 5,-20 14,-26 8,-5 19,-8 34,-8l43 0c31,0 47,11 47,34l0 76zm-31 -5l0 -65c0,-6 -2,-11 -5,-13 -4,-2 -10,-4 -18,-4l-29 0c-9,0 -15,2 -19,4 -3,2 -5,7 -5,13l0 64c0,6 2,10 6,13 3,2 9,3 18,3l29 0c8,0 14,-1 18,-3 3,-3 5,-6 5,-12zm219 -82l-48 0 0 120 -30 0 0 -120 -48 0 0 -23 126 0 0 23zm204 120l-39 0 -69 -54c-2,-2 -4,-5 -4,-10 0,-9 6,-13 19,-13l41 0c12,0 19,-5 19,-13l0 -16c0,-9 -8,-13 -22,-13l-56 0 0 119 -31 0 0 -143 95 0c30,0 44,11 44,32l0 24c0,9 -3,16 -11,22 -8,6 -18,8 -30,8l-28 0 72 57zm198 -58l-91 0 0 21c0,8 7,13 22,13l75 0 0 26 -83 0c-14,0 -25,-3 -33,-8 -10,-6 -14,-14 -14,-25l0 -79c0,-10 4,-19 12,-25 8,-6 19,-9 33,-9l85 0 0 26 -75 0c-15,0 -22,4 -22,13l0 21 91 0 0 26zm260 -26c0,10 -4,18 -11,23 -8,6 -19,9 -32,9l-67 0 0 52 -30 0 0 -143 96 0c13,0 23,2 31,7 8,5 13,12 13,22 0,9 0,19 0,30zm-31 -7l0 -16c0,-9 -7,-13 -20,-13l-59 0 0 44 58 0c14,0 21,-5 21,-15zm300 92l-29 0 0 -106 -47 93c-5,10 -12,15 -21,15 -6,0 -10,-1 -14,-4 -2,-2 -4,-5 -6,-10l-48 -94 0 106 -29 0 0 -124c0,-5 2,-10 6,-14 5,-4 11,-6 19,-6 12,0 20,5 24,14l48 97 48 -97c5,-9 13,-14 24,-14 8,0 14,2 19,6 4,4 6,9 6,15l0 123zm205 -59l-91 0 0 21c0,8 7,13 22,13l75 0 0 26 -83 0c-14,0 -25,-3 -34,-8 -9,-6 -14,-14 -14,-25l0 -79c0,-10 4,-19 13,-25 8,-6 19,-9 32,-9l86 0 0 26 -76 0c-14,0 -21,4 -21,13l0 21 91 0 0 26z"
         id="path11"
         style="stroke:none;stroke-opacity:1;fill:#f7f7f7;fill-opacity:1" /></g><g
       id="_772592272"><polygon
         class="fil1"
         points="592,0 6,339 592,677 "
         id="polygon14" /><polygon
         class="fil2"
         points="1197,349 610,688 1197,1026 "
         id="polygon16" /><polygon
         class="fil3"
         points="1801,698 1214,1036 1801,1375 "
         id="polygon18" /><polygon
         class="fil4"
         points="592,1375 592,698 6,1036 "
         id="polygon20" /><polygon
         class="fil5"
         points="604,677 1191,339 604,0 "
         id="polygon22" /><polygon
         class="fil6"
         points="1208,1026 1795,688 1208,349 "
         id="polygon24" /><polygon
         class="fil7"
         points="592,2073 592,1395 6,1734 "
         id="polygon26" /><polygon
         class="fil8"
         points="1197,1724 1197,1046 610,1385 "
         id="polygon28" /><polygon
         class="fil9"
         points="0,1046 0,1724 587,1385 "
         id="polygon30" /><polygon
         class="fil10"
         points="604,1395 604,2073 1191,1734 "
         id="polygon32" /><polygon
         class="fil11"
         points="1208,1046 1208,1724 1795,1385 "
         id="polygon34" /></g></g></svg>